{
  "accessors": [
    {
      "bufferView": 2,
      "componentType": 5126,
      "count": 2486,
      "max": [
        11.788870811462402,
        2.8510138988494873,
        11.78886890411377
      ],
      "min": [
        -11.78886890411377,
        -3.8430049419403076,
        -11.788869857788086
      ],
      "type": "VEC3"
    },
    {
      "bufferView": 2,
      "byteOffset": 29832,
      "componentType": 5126,
      "count": 2486,
      "max": [
        1.0,
        0.9998152256011963,
        1.0
      ],
      "min": [
        -1.0,
        -0.9998152256011963,
        -1.0
      ],
      "type": "VEC3"
    },
    {
      "bufferView": 1,
      "componentType": 5126,
      "count": 2486,
      "max": [
        0.9994750022888184,
        1.0
      ],
      "min": [
        0.0,
        0.0
      ],
      "type": "VEC2"
    },
    {
      "bufferView": 0,
      "componentType": 5125,
      "count": 9960,
      "type": "SCALAR"
    },
    {
      "bufferView": 2,
      "byteOffset": 59664,
      "componentType": 5126,
      "count": 6098,
      "max": [
        14.291024208068848,
        -0.0,
        14.787059783935547
      ],
      "min": [
        -15.681563377380371,
        -0.4840739965438843,
        -15.625911712646484
      ],
      "type": "VEC3"
    },
    {
      "bufferView": 2,
      "byteOffset": 132840,
      "componentType": 5126,
      "count": 6098,
      "max": [
        0.9996930956840515,
        1.0,
        0.9997132420539856
      ],
      "min": [
        -0.9996930956840515,
        -1.0,
        -0.9997010231018066
      ],
      "type": "VEC3"
    },
    {
      "bufferView": 1,
      "byteOffset": 19888,
      "componentType": 5126,
      "count": 6098,
      "max": [
        0.9136210083961487,
        0.13466599583625793
      ],
      "min": [
        0.0,
        0.0
      ],
      "type": "VEC2"
    },
    {
      "bufferView": 0,
      "byteOffset": 39840,
      "componentType": 5125,
      "count": 20160,
      "type": "SCALAR"
    }
  ],
  "asset": {
    "extras": {
      "author": "Kateryna (https://sketchfab.com/nkkateruna)",
      "license": "CC-BY-4.0 (http://creativecommons.org/licenses/by/4.0/)",
      "source": "https://sketchfab.com/3d-models/compass-rose-b209af3e8f6f4544ad209294cc988551",
      "title": "Compass_Rose"
    },
    "generator": "Sketchfab-15.31.0",
    "version": "2.0"
  },
  "bufferViews": [
    {
      "buffer": 0,
      "byteLength": 120480,
      "name": "floatBufferViews",
      "target": 34963
    },
    {
      "buffer": 0,
      "byteLength": 68672,
      "byteOffset": 120480,
      "byteStride": 8,
      "name": "floatBufferViews",
      "target": 34962
    },
    {
      "buffer": 0,
      "byteLength": 206016,
      "byteOffset": 189152,
      "byteStride": 12,
      "name": "floatBufferViews",
      "target": 34962
    }
  ],
  "buffers": [
    {
      "byteLength": 395168,
      "uri": "scene.bin"
    }
  ],
  "materials": [
    {
      "doubleSided": true,
      "name": "initialShadingGroup",
      "pbrMetallicRoughness": {
        "metallicFactor": 0.0,
        "roughnessFactor": 0.6
      }
    },
    {
      "doubleSided": true,
      "name": "typeBlinnSG",
      "pbrMetallicRoughness": {
        "metallicFactor": 0.0,
        "roughnessFactor": 0.6
      }
    }
  ],
  "meshes": [
    {
      "name": "Object_0",
      "primitives": [
        {
          "attributes": {
            "NORMAL": 1,
            "POSITION": 0,
            "TEXCOORD_0": 2
          },
          "indices": 3,
          "material": 0,
          "mode": 4
        }
      ]
    },
    {
      "name": "Object_1",
      "primitives": [
        {
          "attributes": {
            "NORMAL": 5,
            "POSITION": 4,
            "TEXCOORD_0": 6
          },
          "indices": 7,
          "material": 1,
          "mode": 4
        }
      ]
    }
  ],
  "nodes": [
    {
      "children": [
        1
      ],
      "matrix": [
        1.0,
        0.0,
        0.0,
        0.0,
        0.0,
        2.220446049250313e-16,
        -1.0,
        0.0,
        0.0,
        1.0,
        2.220446049250313e-16,
        0.0,
        0.0,
        0.0,
        0.0,
        1.0
      ],
      "name": "Sketchfab_model"
    },
    {
      "children": [
        2,
        3
      ],
      "name": "Compass_Rose.obj.cleaner.materialmerger.gles"
    },
    {
      "mesh": 0,
      "name": "Object_2"
    },
    {
      "mesh": 1,
      "name": "Object_3"
    }
  ],
  "scene": 0,
  "scenes": [
    {
      "name": "Sketchfab_Scene",
      "nodes": [
        0
      ]
    }
  ]
}
